Coordinates
version=1
nRows=17
nColumns=34
inDegrees=yes

Units are S.I. units (second, meters, Newtons, ...)
If the header above contains a line with 'inDegrees', this indicates whether rotational values are in degrees (yes) or radians (no).

endheader
time	pelvis_tilt	pelvis_list	pelvis_rotation	pelvis_tx	pelvis_ty	pelvis_tz	hip_flexion_r	hip_adduction_r	hip_rotation_r	knee_angle_r	ankle_angle_r	subtalar_angle_r	mtp_angle_r	hip_flexion_l	hip_adduction_l	hip_rotation_l	knee_angle_l	ankle_angle_l	subtalar_angle_l	mtp_angle_l	lumbar_extension	lumbar_bending	lumbar_rotation	arm_flex_r	arm_add_r	arm_rot_r	elbow_flex_r	pro_sup_r	arm_flex_l	arm_add_l	arm_rot_l	elbow_flex_l	pro_sup_l
      5.00000000	     16.81988656	     13.67996707	   -133.44987335	     -0.70356371	      0.77413032	     -0.37369163	     69.65784044	    -11.94606271	    -19.99543678	     69.53479734	     18.92201121	    -13.65214024	      0.00000000	     32.29402423	    -24.56887857	      6.28578476	     40.83164875	     23.58622158	     -8.44034653	      0.00000000	    -39.55574018	      5.72228004	    -19.68517765	     11.34094657	    -15.80972897	     28.78002129	     83.61958332	     92.57042159	     45.05360044	    -10.89717818	     -1.23666222	     36.06279884	     80.72943889
      5.01666670	     16.60964046	     13.96538269	   -135.22160554	     -0.68642368	      0.77866353	     -0.37258209	     70.99097576	    -13.05241760	    -20.58551064	     71.21710196	     17.79334231	    -12.69546390	      0.00000000	     31.73602246	    -24.12096291	      6.34523812	     40.73305006	     23.78511404	    -11.47762377	      0.00000000	    -39.60493254	      7.91670772	    -21.53503890	      2.83020114	    -17.18172926	     30.02543296	     90.46072595	     92.57792633	     52.84906022	     -8.78244705	      5.10994316	     44.28910037	     79.04589876
      5.03333330	     16.53165868	     14.38012362	   -138.01781141	     -0.67500199	      0.79765566	     -0.37284848	     71.82152668	    -13.31238640	    -21.17002201	     72.01366802	     16.59581796	    -11.46249915	      0.00000000	     30.12213441	    -24.06335129	      5.35774150	     39.11783830	     22.57900865	    -14.14802297	      0.00000000	    -39.55705941	      9.81719980	    -22.37855981	     -0.37069769	    -17.01119130	     28.20896000	     92.35705938	     93.08673279	     59.81615931	     -7.91835855	     10.08223245	     52.76403245	     78.04420693
      5.05000000	     16.35673673	     14.59772293	   -141.42925177	     -0.67055890	      0.81610468	     -0.37403529	     71.81574587	    -12.73130380	    -21.68368500	     72.07442027	     15.55414352	    -10.80540246	      0.00000000	     27.09723287	    -24.38531199	      3.25679701	     36.06333468	     20.82104784	    -15.73094751	      0.00000000	    -40.02792558	     11.22504660	    -22.04169843	      1.00359140	    -15.90650674	     24.03565008	     94.71788412	     98.16959480	     66.59695160	     -7.93169967	     15.41598365	     60.78973228	     70.50100233
      5.06666670	     16.45006950	     14.72864915	   -144.94000067	     -0.67452991	      0.82764149	     -0.37398251	     71.58702485	    -11.82154154	    -21.92135293	     72.15438302	     14.69357092	    -10.51307385	      0.00000000	     23.20101322	    -24.69047270	      0.78807620	     31.71168548	     17.82761520	    -17.34532131	      0.00000000	    -40.24934365	     12.21358192	    -21.95978130	      6.05744615	    -14.76109066	     22.51755287	     95.10515516	     97.91731521	     71.60191068	     -8.75831936	     17.95250073	     67.98849160	     71.11301238
      5.08333330	     16.68441913	     14.82397081	   -148.34530087	     -0.68636343	      0.83984082	     -0.37167561	     70.79783621	    -10.61707033	    -21.93389888	     72.25097044	     14.11745703	    -11.02221398	      0.00000000	     18.28423741	    -25.09691232	     -2.79803053	     26.07452064	     14.49400287	    -17.40644398	      0.00000000	    -40.06966759	     12.79868724	    -20.92081866	     10.61970397	    -13.88411131	     21.90015902	     91.86691631	     97.45139035	     74.30543819	     -9.28530830	     19.58456314	     73.73162499	     71.88055716
      5.10000000	     17.40700359	     15.38080724	   -151.30533863	     -0.70147825	      0.84745410	     -0.36799874	     69.88589774	     -9.45499287	    -22.30768960	     72.27062100	     13.89127355	    -12.23399428	      0.00000000	     13.87026556	    -25.48312629	     -6.41206029	     20.28763394	     10.86904119	    -16.42169809	      0.00000000	    -38.20247245	     13.96728341	    -20.61484642	     14.54056291	    -14.27090518	     24.44010604	     87.23210143	     96.25433786	     72.91192646	    -11.55626352	     19.54076431	     83.08392508	     73.49920609
      5.11666670	     18.54042800	     15.55562366	   -153.93777385	     -0.71674655	      0.85192057	     -0.36486172	     68.84956363	     -8.55332888	    -22.29136850	     72.35576886	     13.54645938	    -14.73224751	      0.00000000	      9.89156853	    -25.05716492	     -9.86534503	     14.93860863	      6.76867016	    -15.61884507	      0.00000000	    -35.90345345	     14.77257639	    -19.44347949	     15.94900009	    -15.73687328	     26.00538630	     84.66235738	     95.00843645	     70.67951439	    -12.08968345	     18.47651299	     90.53635195	     74.92073758
      5.13333330	     19.92021526	     15.36037511	   -156.29019128	     -0.73300445	      0.85552925	     -0.36399117	     67.49367580	     -7.76024358	    -22.09308675	     72.18914559	     13.13539237	    -18.05438860	      0.00000000	      6.69080425	    -23.98623640	    -12.89358582	     10.46514680	      2.11574192	    -15.12905206	      0.00000000	    -33.37683976	     15.30379877	    -18.25313887	     16.55496041	    -16.68482842	     26.67905927	     83.64769103	     94.26383662	     68.64537175	    -12.25289965	     18.30323342	     96.47807060	     75.90042258
      5.15000000	     21.26132904	     14.83520570	   -158.35190167	     -0.75231766	      0.85912649	     -0.36595941	     65.42595314	     -6.97876119	    -21.99246052	     71.71917524	     12.31286855	    -21.41606583	      0.00000000	      4.23089921	    -22.59192168	    -15.48186815	      7.30154337	     -2.85181013	    -14.92624390	      0.00000000	    -30.79492647	     15.83234989	    -17.50928470	     17.27979686	    -16.64017022	     27.01210624	     82.58525366	     93.68083935	     65.81001748	    -12.94875582	     17.96656477	    102.18139808	     76.95921571
      5.16666670	     22.33602305	     13.62523514	   -160.24871832	     -0.77469282	      0.86228012	     -0.37006511	     62.24696301	     -6.08631661	    -21.46946146	     71.00036130	     10.98580900	    -24.29120895	      0.00000000	      2.34610391	    -20.68242309	    -16.49283275	      6.32094445	     -7.91353717	    -16.06293416	      0.00000000	    -28.41263753	     15.58180140	    -17.03174449	     19.32928915	    -15.09651279	     28.14599935	     78.71930170	     93.52842792	     61.22597592	    -14.09439784	     16.93357466	    107.20194605	     78.66988561
      5.18333330	     23.02463537	     11.40146923	   -162.12992411	     -0.79934897	      0.86751462	     -0.37560342	     57.33539472	     -5.09901713	    -20.04648810	     69.29791395	      8.91592278	    -26.89901096	      0.00000000	      1.67221230	    -18.05391038	    -14.49114782	      9.57471456	    -14.04487247	    -19.74299497	      0.00000000	    -27.48443622	     13.81416683	    -15.18269536	     21.94198817	    -12.75277978	     27.33474459	     74.82563394	     93.69049055	     56.38912189	    -14.04032693	     16.49071207	    108.83088732	     79.55395689
      5.20000000	     23.98357795	      8.10661920	   -164.40347601	     -0.82522273	      0.87569107	     -0.38250664	     51.11687130	     -4.39942712	    -17.28429851	     65.16985755	      7.04381207	    -28.21422329	      0.00000000	      3.86659033	    -13.97062483	     -8.87208163	     19.06042713	    -20.67630421	    -25.99784282	      0.00000000	    -27.45186864	     10.28193458	    -12.43612418	     26.34050300	     -9.78541983	     26.59743749	     69.47560084	     94.00663171	     50.64392897	    -13.54814292	     16.16416445	    106.23416158	     80.13806799
      5.21666670	     25.74445532	      4.27341106	   -166.35060641	     -0.84818313	      0.88259282	     -0.38967935	     44.84547192	     -4.96781451	    -14.01768710	     57.91408113	      6.09743034	    -28.05865890	      0.00000000	      9.80835597	     -8.06781312	     -2.90132554	     34.24217502	    -24.35279961	    -28.87299564	      0.00000000	    -27.45664398	      5.72360571	     -9.71889232	     32.03857084	     -7.08712266	     26.77025903	     62.99052104	     94.46446765	     44.59104224	    -13.22979307	     16.04621087	    100.25780866	     80.72581895
      5.23333330	     27.56490271	      0.86198981	   -167.46591922	     -0.86658407	      0.88196550	     -0.39567889	     39.41154781	     -6.56309651	    -12.06312660	     49.88621044	      6.46128201	    -26.53305252	      0.00000000	     17.52052774	     -2.11123765	     -0.30985618	     52.22217751	    -22.86825016	    -26.03786982	      0.00000000	    -27.31498217	      1.88408640	     -6.84538834	     36.90661443	     -5.41868554	     27.38440923	     58.88663467	     94.60624785	     38.12942729	    -13.24092633	     15.64687839	     90.53022303	     80.83777404
      5.25000000	     28.48058141	     -1.69225483	   -168.64027591	     -0.88161495	      0.87338759	     -0.40144308	     35.20961000	     -7.51975133	    -10.56820391	     43.84481372	      8.98643970	    -24.37923617	      0.00000000	     24.44903647	      2.06775890	     -0.97033205	     69.50792985	    -18.81415219	    -21.62439060	      0.00000000	    -27.11262374	     -1.00706732	     -3.96462845	     40.70900080	     -3.89927777	     29.20473015	     57.32573777	     94.48526937	     31.58200280	    -13.76005789	     13.95312140	     77.54857028	     80.71733345
      5.26666670	     28.67398202	     -3.44376546	   -170.01940378	     -0.89392293	      0.86276610	     -0.40599814	     32.56825771	     -7.90032303	     -9.51959076	     40.91285749	     13.04336440	    -21.97919766	      0.00000000	     30.77759772	      4.63317402	     -2.59590075	     85.20182706	    -14.95744319	    -18.77472987	      0.00000000	    -26.97553470	     -2.68807240	     -0.98863833	     43.92970195	     -2.58329203	     30.12703502	     60.00126889	     93.89935357	     25.33235519	    -13.76303979	     10.53405879	     62.42643270	     80.36771825
